# xmcd
#
# Track frame offsets: 
#        150
#        18428
#        32802
#        47292
#        64084
#        87669
#        109909
#        126829
#        138927
#        152939
#
# Disc length: 2359 seconds
#
# Revision: 0
# Processed by: cddbd v1.5.2PL0 Copyright (c) Steve Scherf et al.
# Submitted via: ExactAudioCopyFreeDBPlugin 1.0
#
DISCID=8409350a
DTITLE=Ronnie Milsap - Images
DYEAR=1979
DGENRE=Country
TTITLE0=Nobody Likes Sad Songs
TTITLE1=Keep The Night Away
TTITLE2=I Really Don't Want To Know
TTITLE3=Just Because It Feels Good
TTITLE4=You Don't Look For Love
TTITLE5=Hi-Heel Sneakers
TTITLE6=In No Time At All
TTITLE7=Delta Queen
TTITLE8=All Good Things Don't Have To End
TTITLE9=Get It Up
EXTD=
EXTT0=
EXTT1=
EXTT2=
EXTT3=
EXTT4=
EXTT5=
EXTT6=
EXTT7=
EXTT8=
EXTT9=
PLAYORDER=
